<svg id="visual" viewBox="0 0 900 600" width="900" height="600" xmlns="http://www.w3.org/2000/svg" xmlns:xlink="http://www.w3.org/1999/xlink" version="1.1"><rect x="0" y="0" width="900" height="600" fill="#1E431F"></rect><path d="M0 420L129 356L257 389L386 397L514 367L643 391L771 432L900 420L900 601L771 601L643 601L514 601L386 601L257 601L129 601L0 601Z" fill="#80b663"></path><path d="M0 448L129 448L257 435L386 416L514 453L643 426L771 449L900 435L900 601L771 601L643 601L514 601L386 601L257 601L129 601L0 601Z" fill="#6a9e57"></path><path d="M0 472L129 476L257 479L386 447L514 442L643 500L771 456L900 479L900 601L771 601L643 601L514 601L386 601L257 601L129 601L0 601Z" fill="#56864b"></path><path d="M0 530L129 537L257 541L386 507L514 541L643 538L771 503L900 512L900 601L771 601L643 601L514 601L386 601L257 601L129 601L0 601Z" fill="#436f3f"></path><path d="M0 526L129 539L257 554L386 565L514 548L643 570L771 567L900 545L900 601L771 601L643 601L514 601L386 601L257 601L129 601L0 601Z" fill="#325833"></path></svg>